<svg width="260" height="51" viewBox="0 0 260 51" fill="none" xmlns="http://www.w3.org/2000/svg">
<g id="all-text">
<g id="text-7seg">
<g id="letter12">
<path id="Rectangle 48" opacity="0.9" d="M191 27H193V33H191V27Z" fill="white"/>
<path id="Rectangle 49" opacity="0.9" d="M193 27V25H199V27H193Z" fill="white"/>
</g>
<g id="letter3">
<path id="Rectangle 12" opacity="0.9" d="M94 19H96V25H94V19Z" fill="white"/>
<path id="Rectangle 9" opacity="0.9" d="M86 19H88V25H86V19Z" fill="white"/>
<path id="Rectangle 10" opacity="0.9" d="M86 27H88V33H86V27Z" fill="white"/>
<path id="Rectangle 11" opacity="0.9" d="M88 18.8889V17H94V18.8889H88Z" fill="white"/>
<path id="Rectangle 13" opacity="0.9" d="M88 26.8889V25H94V26.8889H88Z" fill="white"/>
<path id="Rectangle 14" opacity="0.9" d="M88 34.8889V33H94V34.8889H88Z" fill="white"/>
</g>
<g id="letter3_2">
<path id="Rectangle 12_2" opacity="0.9" d="M116 19.1111H118V25.1111H116V19.1111Z" fill="white"/>
<path id="Rectangle 9_2" opacity="0.9" d="M108 19.1111H110V25.1111H108V19.1111Z" fill="white"/>
<path id="Rectangle 10_2" opacity="0.9" d="M108 27.1111H110V33.1111H108V27.1111Z" fill="white"/>
<path id="Rectangle 11_2" opacity="0.9" d="M110 19V17H116V19H110Z" fill="white"/>
<path id="Rectangle 13_2" opacity="0.9" d="M110 27.1111V25.1111H116V27.1111H110Z" fill="white"/>
<path id="Rectangle 14_2" opacity="0.9" d="M110 35V33H116V35H110Z" fill="white"/>
</g>
<g id="letter3_3">
<path id="Rectangle 12_3" opacity="0.9" d="M173 19.1111H175V25.1111H173V19.1111Z" fill="white"/>
<path id="Rectangle 9_3" opacity="0.9" d="M165 19.1111H167V25.1111H165V19.1111Z" fill="white"/>
<path id="Rectangle 10_3" opacity="0.9" d="M165 27.1111H167V33.1111H165V27.1111Z" fill="white"/>
<path id="Rectangle 11_3" opacity="0.9" d="M167 19V17H173V19H167Z" fill="white"/>
<path id="Rectangle 13_3" opacity="0.9" d="M167 27.1111V25.1111H173V27.1111H167Z" fill="white"/>
<path id="Rectangle 14_3" opacity="0.9" d="M167 35V33H173V35H167Z" fill="white"/>
</g>
<g id="letter3_4">
<path id="Rectangle 12_4" opacity="0.9" d="M186 19.1111H188V25.1111H186V19.1111Z" fill="white"/>
<path id="Rectangle 9_4" opacity="0.9" d="M178 19.1111H180V25.1111H178V19.1111Z" fill="white"/>
<path id="Rectangle 10_4" opacity="0.9" d="M178 27.1111H180V33.1111H178V27.1111Z" fill="white"/>
<path id="Rectangle 11_4" opacity="0.9" d="M180 19V17H186V19H180Z" fill="white"/>
<path id="Rectangle 13_4" opacity="0.9" d="M180 27.1111V25.1111H186V27.1111H180Z" fill="white"/>
<path id="Rectangle 14_4" opacity="0.9" d="M180 35V33H186V35H180Z" fill="white"/>
</g>
<g id="letter8">
<path id="Rectangle 31" opacity="0.9" d="M147 19H149V25H147V19Z" fill="white"/>
<path id="Rectangle 32" opacity="0.9" d="M147 27H149V33H147V27Z" fill="white"/>
</g>
<g id="letter7">
<path id="Rectangle 25" opacity="0.9" d="M134 27H136V33H134V27Z" fill="white"/>
<path id="Rectangle 26" opacity="0.9" d="M134 19H136V25H134V19Z" fill="white"/>
<path id="Rectangle 30" opacity="0.9" d="M142 27H144V33H142V27Z" fill="white"/>
<path id="Rectangle 27" opacity="0.9" d="M136 19V17H142V19H136Z" fill="white"/>
<path id="Rectangle 28" opacity="0.9" d="M136 27V25H142V27H136Z" fill="white"/>
<path id="Rectangle 29" opacity="0.9" d="M136 35V33H142V35H136Z" fill="white"/>
</g>
<g id="letter9">
<path id="Rectangle 33" opacity="0.9" d="M121 27H123V33H121V27Z" fill="white"/>
<path id="Rectangle 34" opacity="0.9" d="M129 27H131V33H129V27Z" fill="white"/>
<path id="Rectangle 35" opacity="0.9" d="M123 27V25H129V27H123Z" fill="white"/>
</g>
<g id="letter9_2">
<path id="Rectangle 33_2" opacity="0.9" d="M152 27H154V33H152V27Z" fill="white"/>
<path id="Rectangle 34_2" opacity="0.9" d="M160 27H162V33H160V27Z" fill="white"/>
<path id="Rectangle 35_2" opacity="0.9" d="M154 27V25H160V27H154Z" fill="white"/>
</g>
<g id="letter4">
<path id="Rectangle 15" opacity="0.9" d="M99 35V33H105V35H99Z" fill="white"/>
</g>
<g id="letter2">
<path id="Rectangle 5" opacity="0.9" d="M73 20H75V26H73V20Z" fill="white"/>
<path id="Rectangle 6" opacity="0.9" d="M73 28H75V34H73V28Z" fill="white"/>
<path id="Rectangle 7" opacity="0.9" d="M75 28V26H81V28H75Z" fill="white"/>
<path id="Rectangle 8" opacity="0.9" d="M81 28H83V34H81V28Z" fill="white"/>
</g>
<g id="letter1">
<rect id="Rectangle 1" opacity="0.9" x="62" y="19" width="2" height="6" fill="white"/>
<path id="Rectangle 2" opacity="0.9" d="M62 27H64V33H62V27Z" fill="white"/>
<path id="Rectangle 3" opacity="0.9" d="M64 35V33H70V35H64Z" fill="white"/>
<path id="Rectangle 4" opacity="0.9" d="M64 27V25H70V27H64Z" fill="white"/>
</g>
</g>
</g>
</svg>
