<svg width="260" height="51" viewBox="0 0 260 51" fill="none" xmlns="http://www.w3.org/2000/svg">
<g id="all-text">
<path id="the_engineer" d="M68.3 33.1C67.3133 33.1 66.5533 32.8333 66.02 32.3C65.4867 31.7667 65.22 31.0133 65.22 30.04V20.18H66.64V29.96C66.64 30.5733 66.7933 31.0467 67.1 31.38C67.42 31.7133 67.8733 31.88 68.46 31.88C69.0867 31.88 69.6067 31.7 70.02 31.34L70.52 32.36C70.24 32.6133 69.9 32.8 69.5 32.92C69.1133 33.04 68.7133 33.1 68.3 33.1ZM63.34 23.68V22.5H69.84V23.68H63.34ZM78.465 22.4C79.3183 22.4 80.065 22.5667 80.705 22.9C81.3583 23.22 81.865 23.7133 82.225 24.38C82.5983 25.0467 82.785 25.8867 82.785 26.9V33H81.365V27.04C81.365 25.9333 81.085 25.1 80.525 24.54C79.9783 23.9667 79.205 23.68 78.205 23.68C77.4583 23.68 76.805 23.8333 76.245 24.14C75.6983 24.4333 75.2717 24.8667 74.965 25.44C74.6717 26 74.525 26.68 74.525 27.48V33H73.105V18.16H74.525V25.38L74.245 24.84C74.5783 24.08 75.1117 23.4867 75.845 23.06C76.5783 22.62 77.4517 22.4 78.465 22.4ZM91.0806 33.1C89.9873 33.1 89.0273 32.8733 88.2006 32.42C87.374 31.9533 86.7273 31.32 86.2606 30.52C85.794 29.7067 85.5606 28.78 85.5606 27.74C85.5606 26.7 85.7806 25.78 86.2206 24.98C86.674 24.18 87.2873 23.5533 88.0606 23.1C88.8473 22.6333 89.7273 22.4 90.7006 22.4C91.6873 22.4 92.5606 22.6267 93.3206 23.08C94.094 23.52 94.7006 24.1467 95.1406 24.96C95.5806 25.76 95.8006 26.6867 95.8006 27.74C95.8006 27.8067 95.794 27.88 95.7806 27.96C95.7806 28.0267 95.7806 28.1 95.7806 28.18H86.6406V27.12H95.0206L94.4606 27.54C94.4606 26.78 94.294 26.1067 93.9606 25.52C93.6406 24.92 93.2006 24.4533 92.6406 24.12C92.0806 23.7867 91.434 23.62 90.7006 23.62C89.9806 23.62 89.334 23.7867 88.7606 24.12C88.1873 24.4533 87.7406 24.92 87.4206 25.52C87.1006 26.12 86.9406 26.8067 86.9406 27.58V27.8C86.9406 28.6 87.114 29.3067 87.4606 29.92C87.8206 30.52 88.314 30.9933 88.9406 31.34C89.5806 31.6733 90.3073 31.84 91.1206 31.84C91.7606 31.84 92.354 31.7267 92.9006 31.5C93.4606 31.2733 93.9406 30.9267 94.3406 30.46L95.1406 31.38C94.674 31.94 94.0873 32.3667 93.3806 32.66C92.6873 32.9533 91.9206 33.1 91.0806 33.1ZM96.5938 33.96V33H106.594V33.96H96.5938ZM112.467 33.1C111.374 33.1 110.414 32.8733 109.587 32.42C108.761 31.9533 108.114 31.32 107.647 30.52C107.181 29.7067 106.947 28.78 106.947 27.74C106.947 26.7 107.167 25.78 107.607 24.98C108.061 24.18 108.674 23.5533 109.447 23.1C110.234 22.6333 111.114 22.4 112.087 22.4C113.074 22.4 113.947 22.6267 114.707 23.08C115.481 23.52 116.087 24.1467 116.527 24.96C116.967 25.76 117.187 26.6867 117.187 27.74C117.187 27.8067 117.181 27.88 117.167 27.96C117.167 28.0267 117.167 28.1 117.167 28.18H108.027V27.12H116.407L115.847 27.54C115.847 26.78 115.681 26.1067 115.347 25.52C115.027 24.92 114.587 24.4533 114.027 24.12C113.467 23.7867 112.821 23.62 112.087 23.62C111.367 23.62 110.721 23.7867 110.147 24.12C109.574 24.4533 109.127 24.92 108.807 25.52C108.487 26.12 108.327 26.8067 108.327 27.58V27.8C108.327 28.6 108.501 29.3067 108.847 29.92C109.207 30.52 109.701 30.9933 110.327 31.34C110.967 31.6733 111.694 31.84 112.507 31.84C113.147 31.84 113.741 31.7267 114.287 31.5C114.847 31.2733 115.327 30.9267 115.727 30.46L116.527 31.38C116.061 31.94 115.474 32.3667 114.767 32.66C114.074 32.9533 113.307 33.1 112.467 33.1ZM125.438 22.4C126.291 22.4 127.038 22.5667 127.678 22.9C128.331 23.22 128.838 23.7133 129.198 24.38C129.571 25.0467 129.758 25.8867 129.758 26.9V33H128.338V27.04C128.338 25.9333 128.058 25.1 127.498 24.54C126.951 23.9667 126.178 23.68 125.178 23.68C124.431 23.68 123.778 23.8333 123.218 24.14C122.671 24.4333 122.244 24.8667 121.938 25.44C121.644 26 121.498 26.68 121.498 27.48V33H120.078V22.5H121.438V25.38L121.218 24.84C121.551 24.08 122.084 23.4867 122.818 23.06C123.551 22.62 124.424 22.4 125.438 22.4ZM138.073 36.98C137.113 36.98 136.193 36.84 135.313 36.56C134.433 36.28 133.72 35.88 133.173 35.36L133.893 34.28C134.387 34.72 134.993 35.0667 135.713 35.32C136.447 35.5867 137.22 35.72 138.033 35.72C139.367 35.72 140.347 35.4067 140.973 34.78C141.6 34.1667 141.913 33.2067 141.913 31.9V29.28L142.113 27.48L141.973 25.68V22.5H143.333V31.72C143.333 33.5333 142.887 34.86 141.993 35.7C141.113 36.5533 139.807 36.98 138.073 36.98ZM137.813 32.6C136.813 32.6 135.913 32.3867 135.113 31.96C134.313 31.52 133.68 30.9133 133.213 30.14C132.76 29.3667 132.533 28.48 132.533 27.48C132.533 26.48 132.76 25.6 133.213 24.84C133.68 24.0667 134.313 23.4667 135.113 23.04C135.913 22.6133 136.813 22.4 137.813 22.4C138.747 22.4 139.587 22.5933 140.333 22.98C141.08 23.3667 141.673 23.94 142.113 24.7C142.553 25.46 142.773 26.3867 142.773 27.48C142.773 28.5733 142.553 29.5 142.113 30.26C141.673 31.02 141.08 31.6 140.333 32C139.587 32.4 138.747 32.6 137.813 32.6ZM137.953 31.34C138.727 31.34 139.413 31.18 140.013 30.86C140.613 30.5267 141.087 30.0733 141.433 29.5C141.78 28.9133 141.953 28.24 141.953 27.48C141.953 26.72 141.78 26.0533 141.433 25.48C141.087 24.9067 140.613 24.46 140.013 24.14C139.413 23.8067 138.727 23.64 137.953 23.64C137.193 23.64 136.507 23.8067 135.893 24.14C135.293 24.46 134.82 24.9067 134.473 25.48C134.14 26.0533 133.973 26.72 133.973 27.48C133.973 28.24 134.14 28.9133 134.473 29.5C134.82 30.0733 135.293 30.5267 135.893 30.86C136.507 31.18 137.193 31.34 137.953 31.34ZM147.285 33V22.5H148.705V33H147.285ZM148.005 20.18C147.711 20.18 147.465 20.08 147.265 19.88C147.065 19.68 146.965 19.44 146.965 19.16C146.965 18.88 147.065 18.6467 147.265 18.46C147.465 18.26 147.711 18.16 148.005 18.16C148.298 18.16 148.545 18.2533 148.745 18.44C148.945 18.6267 149.045 18.86 149.045 19.14C149.045 19.4333 148.945 19.68 148.745 19.88C148.558 20.08 148.311 20.18 148.005 20.18ZM158.016 22.4C158.869 22.4 159.616 22.5667 160.256 22.9C160.909 23.22 161.416 23.7133 161.776 24.38C162.149 25.0467 162.336 25.8867 162.336 26.9V33H160.916V27.04C160.916 25.9333 160.636 25.1 160.076 24.54C159.529 23.9667 158.756 23.68 157.756 23.68C157.009 23.68 156.356 23.8333 155.796 24.14C155.249 24.4333 154.822 24.8667 154.516 25.44C154.222 26 154.076 26.68 154.076 27.48V33H152.656V22.5H154.016V25.38L153.796 24.84C154.129 24.08 154.662 23.4867 155.396 23.06C156.129 22.62 157.002 22.4 158.016 22.4ZM170.631 33.1C169.538 33.1 168.578 32.8733 167.751 32.42C166.925 31.9533 166.278 31.32 165.811 30.52C165.345 29.7067 165.111 28.78 165.111 27.74C165.111 26.7 165.331 25.78 165.771 24.98C166.225 24.18 166.838 23.5533 167.611 23.1C168.398 22.6333 169.278 22.4 170.251 22.4C171.238 22.4 172.111 22.6267 172.871 23.08C173.645 23.52 174.251 24.1467 174.691 24.96C175.131 25.76 175.351 26.6867 175.351 27.74C175.351 27.8067 175.345 27.88 175.331 27.96C175.331 28.0267 175.331 28.1 175.331 28.18H166.191V27.12H174.571L174.011 27.54C174.011 26.78 173.845 26.1067 173.511 25.52C173.191 24.92 172.751 24.4533 172.191 24.12C171.631 23.7867 170.985 23.62 170.251 23.62C169.531 23.62 168.885 23.7867 168.311 24.12C167.738 24.4533 167.291 24.92 166.971 25.52C166.651 26.12 166.491 26.8067 166.491 27.58V27.8C166.491 28.6 166.665 29.3067 167.011 29.92C167.371 30.52 167.865 30.9933 168.491 31.34C169.131 31.6733 169.858 31.84 170.671 31.84C171.311 31.84 171.905 31.7267 172.451 31.5C173.011 31.2733 173.491 30.9267 173.891 30.46L174.691 31.38C174.225 31.94 173.638 32.3667 172.931 32.66C172.238 32.9533 171.471 33.1 170.631 33.1ZM182.702 33.1C181.608 33.1 180.648 32.8733 179.822 32.42C178.995 31.9533 178.348 31.32 177.882 30.52C177.415 29.7067 177.182 28.78 177.182 27.74C177.182 26.7 177.402 25.78 177.842 24.98C178.295 24.18 178.908 23.5533 179.682 23.1C180.468 22.6333 181.348 22.4 182.322 22.4C183.308 22.4 184.182 22.6267 184.942 23.08C185.715 23.52 186.322 24.1467 186.762 24.96C187.202 25.76 187.422 26.6867 187.422 27.74C187.422 27.8067 187.415 27.88 187.402 27.96C187.402 28.0267 187.402 28.1 187.402 28.18H178.262V27.12H186.642L186.082 27.54C186.082 26.78 185.915 26.1067 185.582 25.52C185.262 24.92 184.822 24.4533 184.262 24.12C183.702 23.7867 183.055 23.62 182.322 23.62C181.602 23.62 180.955 23.7867 180.382 24.12C179.808 24.4533 179.362 24.92 179.042 25.52C178.722 26.12 178.562 26.8067 178.562 27.58V27.8C178.562 28.6 178.735 29.3067 179.082 29.92C179.442 30.52 179.935 30.9933 180.562 31.34C181.202 31.6733 181.928 31.84 182.742 31.84C183.382 31.84 183.975 31.7267 184.522 31.5C185.082 31.2733 185.562 30.9267 185.962 30.46L186.762 31.38C186.295 31.94 185.708 32.3667 185.002 32.66C184.308 32.9533 183.542 33.1 182.702 33.1ZM190.312 33V22.5H191.672V25.36L191.532 24.86C191.825 24.06 192.319 23.4533 193.012 23.04C193.705 22.6133 194.565 22.4 195.592 22.4V23.78C195.539 23.78 195.485 23.78 195.432 23.78C195.379 23.7667 195.325 23.76 195.272 23.76C194.165 23.76 193.299 24.1 192.672 24.78C192.045 25.4467 191.732 26.4 191.732 27.64V33H190.312Z" fill="white"/>
</g>
</svg>
