<svg width="260" height="51" viewBox="0 0 260 51" fill="none" xmlns="http://www.w3.org/2000/svg">
<g id="all-text">
<g id="text-7seg">
<g id="letter12">
<path id="Rectangle 48" opacity="0.9" d="M206 27H208V35H206V27Z" fill="white"/>
<path id="Rectangle 49" opacity="0.9" d="M208 27V25H216V27H208Z" fill="white"/>
</g>
<g id="letter3">
<path id="Rectangle 12" opacity="0.9" d="M85 17H87V24.5556H85V17Z" fill="white"/>
<path id="Rectangle 9" opacity="0.9" d="M75 17H77V25H75V17Z" fill="white"/>
<path id="Rectangle 10" opacity="0.9" d="M75 27H77V35H75V27Z" fill="white"/>
<path id="Rectangle 11" opacity="0.9" d="M77 16.8889V15H85V16.8889H77Z" fill="white"/>
<path id="Rectangle 13" opacity="0.9" d="M77 26.8889V25H85V26.8889H77Z" fill="white"/>
<path id="Rectangle 14" opacity="0.9" d="M77 36.8889V35H85V36.8889H77Z" fill="white"/>
</g>
<g id="letter3_2">
<path id="Rectangle 12_2" opacity="0.9" d="M113 17H115V24.5556H113V17Z" fill="white"/>
<path id="Rectangle 9_2" opacity="0.9" d="M103 17H105V25H103V17Z" fill="white"/>
<path id="Rectangle 10_2" opacity="0.9" d="M103 27H105V35H103V27Z" fill="white"/>
<path id="Rectangle 11_2" opacity="0.9" d="M105 16.8889V15H113V16.8889H105Z" fill="white"/>
<path id="Rectangle 13_2" opacity="0.9" d="M105 26.8889V25H113V26.8889H105Z" fill="white"/>
<path id="Rectangle 14_2" opacity="0.9" d="M105 36.8889V35H113V36.8889H105Z" fill="white"/>
</g>
<g id="letter3_3">
<path id="Rectangle 12_3" opacity="0.9" d="M183 17H185V25H183V17Z" fill="white"/>
<path id="Rectangle 9_3" opacity="0.9" d="M173 17H175V25H173V17Z" fill="white"/>
<path id="Rectangle 10_3" opacity="0.9" d="M173 27H175V35H173V27Z" fill="white"/>
<path id="Rectangle 11_3" opacity="0.9" d="M175 16.8889V15H183V16.8889H175Z" fill="white"/>
<path id="Rectangle 13_3" opacity="0.9" d="M175 26.8889V25H183V26.8889H175Z" fill="white"/>
<path id="Rectangle 14_3" opacity="0.9" d="M175 36.8889V35H183V36.8889H175Z" fill="white"/>
</g>
<g id="letter3_4">
<path id="Rectangle 12_4" opacity="0.9" d="M199 17H201V25H199V17Z" fill="white"/>
<path id="Rectangle 9_4" opacity="0.9" d="M189 17H191V25H189V17Z" fill="white"/>
<path id="Rectangle 10_4" opacity="0.9" d="M189 27H191V35H189V27Z" fill="white"/>
<path id="Rectangle 11_4" opacity="0.9" d="M191 16.8889V15H199V16.8889H191Z" fill="white"/>
<path id="Rectangle 13_4" opacity="0.9" d="M191 26.8889V25H199V26.8889H191Z" fill="white"/>
<path id="Rectangle 14_4" opacity="0.9" d="M191 36.8889V35H199V36.8889H191Z" fill="white"/>
</g>
<g id="letter8">
<path id="Rectangle 31" opacity="0.9" d="M151 17H153V25H151V17Z" fill="white"/>
<path id="Rectangle 32" opacity="0.9" d="M151 27H153V35H151V27Z" fill="white"/>
</g>
<g id="letter7">
<path id="Rectangle 25" opacity="0.9" d="M135 27H137V35H135V27Z" fill="white"/>
<path id="Rectangle 26" opacity="0.9" d="M135 17H137V25H135V17Z" fill="white"/>
<path id="Rectangle 30" opacity="0.9" d="M145 27H147V35H145V27Z" fill="white"/>
<path id="Rectangle 27" opacity="0.9" d="M137 17V15H145V17H137Z" fill="white"/>
<path id="Rectangle 28" opacity="0.9" d="M137 27V25H145V27H137Z" fill="white"/>
<path id="Rectangle 29" opacity="0.9" d="M137 37V35H145V37H137Z" fill="white"/>
</g>
<g id="letter9">
<path id="Rectangle 33" opacity="0.9" d="M119 27H121V35H119V27Z" fill="white"/>
<path id="Rectangle 34" opacity="0.9" d="M129 27H131V35H129V27Z" fill="white"/>
<path id="Rectangle 35" opacity="0.9" d="M121 27V25H129V27H121Z" fill="white"/>
</g>
<g id="letter9_2">
<path id="Rectangle 33_2" opacity="0.9" d="M157 27H159V35H157V27Z" fill="white"/>
<path id="Rectangle 34_2" opacity="0.9" d="M167 27H169V35H167V27Z" fill="white"/>
<path id="Rectangle 35_2" opacity="0.9" d="M159 27V25H167V27H159Z" fill="white"/>
</g>
<g id="letter4">
<path id="Rectangle 15" opacity="0.9" d="M91 37V35H99V37H91Z" fill="white"/>
</g>
<g id="letter2">
<path id="Rectangle 5" opacity="0.9" d="M59 17H61V25H59V17Z" fill="white"/>
<path id="Rectangle 6" opacity="0.9" d="M59 27H61V35H59V27Z" fill="white"/>
<path id="Rectangle 7" opacity="0.9" d="M61 27V25H69V27H61Z" fill="white"/>
<path id="Rectangle 8" opacity="0.9" d="M69 27H71V35H69V27Z" fill="white"/>
</g>
<g id="letter1">
<rect id="Rectangle 1" opacity="0.9" x="45" y="17" width="2" height="8" fill="white"/>
<path id="Rectangle 2" opacity="0.9" d="M45 27H47V35H45V27Z" fill="white"/>
<path id="Rectangle 3" opacity="0.9" d="M47 37V35H55V37H47Z" fill="white"/>
<path id="Rectangle 4" opacity="0.9" d="M47 27V25H55V27H47Z" fill="white"/>
</g>
</g>
</g>
</svg>
