<svg width="80" height="80" viewBox="0 0 80 80" fill="none" xmlns="http://www.w3.org/2000/svg">
<path d="M55.7653 63.9608C57.9923 63.0811 60.1348 62.0184 62.1676 60.7932L62.8035 60.4099L62.2092 59.9648C61.6501 59.546 61.097 59.1079 60.5559 58.6569L60.3106 58.4524L60.0219 58.5891C47.152 64.6815 33.0057 64.6826 19.9758 58.5881L19.6861 58.4526L19.4416 58.6588C18.9084 59.1085 18.3566 59.5454 17.7926 59.9632L17.192 60.4082L17.8325 60.7934C19.859 62.0124 21.9957 63.0748 24.2222 63.9545C23.0951 66.1548 21.811 68.2538 20.3875 70.2424C14.0037 68.2177 7.5127 65.1559 0.817205 60.187C-0.537324 45.2278 2.27671 30.0627 12.5402 14.4987C17.5378 12.1676 22.8762 10.457 28.4525 9.46059C29.122 10.6899 29.8759 12.2396 30.3956 13.4879L30.546 13.8493L30.9329 13.79C36.9229 12.8723 42.9695 12.8721 49.0744 13.7902L49.4603 13.8482L49.6104 13.488C50.131 12.2377 50.8689 10.6885 51.5299 9.46093C57.1001 10.4573 62.4323 12.1617 67.4296 14.4867C76.3353 27.8345 80.7694 42.8635 79.1827 60.187C72.4868 65.1623 65.9896 68.2243 59.5991 70.2491C58.1717 68.2612 56.8923 66.1576 55.7653 63.9608ZM19.0185 42.9422C19.0185 47.648 22.4242 51.6234 26.7106 51.6234C31.0673 51.6234 34.4073 47.6475 34.4027 42.9455C34.4731 38.2251 31.0618 34.2546 26.7106 34.2546C22.3517 34.2546 19.0185 38.2402 19.0185 42.9422ZM45.5971 42.9422C45.5971 47.648 49.0028 51.6234 53.2891 51.6234C57.6464 51.6234 60.9795 47.6468 60.9812 42.9459C61.0519 38.2253 57.6403 34.2546 53.2891 34.2546C48.9301 34.2546 45.5971 38.2402 45.5971 42.9422Z" stroke="#D2122E"/>
</svg>
