<svg width="183" height="120" viewBox="0 0 183 120" fill="none" xmlns="http://www.w3.org/2000/svg">
<path d="M47.041 3.00067C43.6991 3.0162 40.5076 3.30122 37.6995 3.79812C29.427 5.25959 27.9251 8.31858 27.9251 13.9599V21.4103H47.4739V23.8938H27.9251H20.5885C14.9071 23.8938 9.93226 27.3087 8.37619 33.8049C6.58129 41.2512 6.50168 45.8977 8.37619 53.6728C9.7658 59.4602 13.0844 63.5839 18.7658 63.5839H25.4871V54.6525C25.4871 48.2001 31.0699 42.5085 37.6995 42.5085H57.2256C62.6609 42.5085 67 38.0332 67 32.5746V13.9599C67 8.66203 62.5307 4.68231 57.2256 3.79812C53.8674 3.2391 50.3829 2.98514 47.041 3.00067ZM36.4691 8.99292C38.4884 8.99292 40.1374 10.6689 40.1374 12.7295C40.1374 14.7829 38.4884 16.4434 36.4691 16.4434C34.4426 16.4434 32.8009 14.7829 32.8009 12.7295C32.8009 10.6689 34.4426 8.99292 36.4691 8.99292Z" fill="#306998"/>
<path d="M150.429 56V64.6632C150.429 71.3796 144.734 77.0326 138.241 77.0326H118.755C113.417 77.0326 109 81.6009 109 86.9463V105.523C109 110.81 113.597 113.92 118.755 115.437C124.93 117.253 130.852 117.581 138.241 115.437C143.152 114.015 147.996 111.153 147.996 105.523V98.0879H128.509V95.6095H147.996H157.75C163.42 95.6095 165.533 91.6546 167.505 85.7185C169.542 79.6073 169.455 73.7305 167.505 65.891C166.103 60.2466 163.427 56 157.75 56H150.429ZM139.469 103.045C141.491 103.045 143.13 104.702 143.13 106.751C143.13 108.808 141.491 110.48 139.469 110.48C137.454 110.48 135.808 108.808 135.808 106.751C135.808 104.702 137.454 103.045 139.469 103.045Z" fill="#FFD43B"/>
<path d="M44.73 68V49.8H51.828C53.4227 49.8 54.7833 50.0513 55.91 50.554C57.0367 51.0567 57.9033 51.7847 58.51 52.738C59.1167 53.6913 59.42 54.8267 59.42 56.144C59.42 57.4613 59.1167 58.5967 58.51 59.55C57.9033 60.486 57.0367 61.214 55.91 61.734C54.7833 62.2367 53.4227 62.488 51.828 62.488H46.16L47.33 61.266V68H44.73ZM47.33 61.526L46.16 60.226H51.75C53.414 60.226 54.6707 59.8707 55.52 59.16C56.3867 58.4493 56.82 57.444 56.82 56.144C56.82 54.844 56.3867 53.8387 55.52 53.128C54.6707 52.4173 53.414 52.062 51.75 52.062H46.16L47.33 50.762V61.526ZM63.5499 73.2C62.8913 73.2 62.2499 73.0873 61.6259 72.862C61.0019 72.654 60.4646 72.342 60.0139 71.926L61.0799 70.054C61.4266 70.3833 61.8079 70.6347 62.2239 70.808C62.6399 70.9813 63.0819 71.068 63.5499 71.068C64.1566 71.068 64.6593 70.912 65.0579 70.6C65.4566 70.288 65.8293 69.7333 66.1759 68.936L67.0339 67.038L67.2939 66.726L72.7019 54.22H75.1459L68.4639 69.378C68.0653 70.3487 67.6146 71.1113 67.1119 71.666C66.6266 72.2207 66.0893 72.6107 65.4999 72.836C64.9106 73.0787 64.2606 73.2 63.5499 73.2ZM66.8259 68.442L60.5339 54.22H63.1339L68.4899 66.492L66.8259 68.442ZM82.5882 68.156C81.2016 68.156 80.1269 67.7833 79.3642 67.038C78.6016 66.2927 78.2202 65.2267 78.2202 63.84V51.204H80.7162V63.736C80.7162 64.4813 80.8982 65.0533 81.2622 65.452C81.6436 65.8507 82.1809 66.05 82.8742 66.05C83.6542 66.05 84.3042 65.8333 84.8242 65.4L85.6042 67.194C85.2229 67.5233 84.7636 67.766 84.2262 67.922C83.7062 68.078 83.1602 68.156 82.5882 68.156ZM75.8802 56.274V54.22H84.6682V56.274H75.8802ZM95.9799 54.09C97.1065 54.09 98.0945 54.3067 98.9439 54.74C99.8105 55.1733 100.487 55.832 100.972 56.716C101.457 57.6 101.7 58.718 101.7 60.07V68H99.2039V60.356C99.2039 59.0213 98.8745 58.016 98.2159 57.34C97.5745 56.664 96.6645 56.326 95.4859 56.326C94.6019 56.326 93.8305 56.4993 93.1719 56.846C92.5132 57.1927 92.0019 57.704 91.6379 58.38C91.2912 59.056 91.1179 59.8967 91.1179 60.902V68H88.6219V48.708H91.1179V57.938L90.6239 56.95C91.0745 56.0487 91.7679 55.3467 92.7039 54.844C93.6399 54.3413 94.7319 54.09 95.9799 54.09ZM112.221 68.156C110.834 68.156 109.604 67.8527 108.529 67.246C107.454 66.6393 106.605 65.8073 105.981 64.75C105.357 63.6753 105.045 62.462 105.045 61.11C105.045 59.7407 105.357 58.5273 105.981 57.47C106.605 56.4127 107.454 55.5893 108.529 55C109.604 54.3933 110.834 54.09 112.221 54.09C113.59 54.09 114.812 54.3933 115.887 55C116.979 55.5893 117.828 56.4127 118.435 57.47C119.059 58.51 119.371 59.7233 119.371 61.11C119.371 62.4793 119.059 63.6927 118.435 64.75C117.828 65.8073 116.979 66.6393 115.887 67.246C114.812 67.8527 113.59 68.156 112.221 68.156ZM112.221 65.972C113.105 65.972 113.894 65.7727 114.587 65.374C115.298 64.9753 115.852 64.412 116.251 63.684C116.65 62.9387 116.849 62.0807 116.849 61.11C116.849 60.122 116.65 59.2727 116.251 58.562C115.852 57.834 115.298 57.2707 114.587 56.872C113.894 56.4733 113.105 56.274 112.221 56.274C111.337 56.274 110.548 56.4733 109.855 56.872C109.162 57.2707 108.607 57.834 108.191 58.562C107.775 59.2727 107.567 60.122 107.567 61.11C107.567 62.0807 107.775 62.9387 108.191 63.684C108.607 64.412 109.162 64.9753 109.855 65.374C110.548 65.7727 111.337 65.972 112.221 65.972ZM130.181 54.09C131.308 54.09 132.296 54.3067 133.145 54.74C134.012 55.1733 134.688 55.832 135.173 56.716C135.658 57.6 135.901 58.718 135.901 60.07V68H133.405V60.356C133.405 59.0213 133.076 58.016 132.417 57.34C131.776 56.664 130.866 56.326 129.687 56.326C128.803 56.326 128.032 56.4993 127.373 56.846C126.714 57.1927 126.203 57.704 125.839 58.38C125.492 59.056 125.319 59.8967 125.319 60.902V68H122.823V54.22H125.215V57.938L124.825 56.95C125.276 56.0487 125.969 55.3467 126.905 54.844C127.841 54.3413 128.933 54.09 130.181 54.09Z" fill="white"/>
</svg>
