<svg width="120" height="118" viewBox="0 0 120 118" fill="none" xmlns="http://www.w3.org/2000/svg">
<g clip-path="url(#clip0_1_4)">
<path d="M28.3792 101.908C31.3969 104.207 36.4232 105.994 44.5383 104.378C44.5419 106.67 44.5645 108.891 44.5871 110.731C44.5947 111.352 44.6023 111.928 44.6091 112.449C44.6245 113.613 44.6362 114.5 44.6362 114.982C44.6362 115.682 44.396 116.411 43.8764 116.894C43.3786 117.357 42.5446 117.668 41.1893 117.401C17.5434 109.448 0.5 87.0067 0.5 60.4958C0.5 27.3143 27.1234 0.5 60.0496 0.5C92.8772 0.5 119.597 27.3148 119.5 60.4944V60.4958C119.5 87.0066 102.456 109.446 78.8105 117.403C77.4559 117.669 76.6219 117.358 76.1238 116.894C75.604 116.411 75.3635 115.681 75.3635 114.981C75.3635 114.319 75.3743 113.162 75.3888 111.613C75.3961 110.826 75.4044 109.939 75.4127 108.964C75.4373 106.071 75.4619 102.414 75.4619 98.3553C75.4619 93.1926 73.9453 89.6533 71.9826 87.511C78.3947 86.7013 84.9361 84.9839 89.9617 80.7466C95.2836 76.2594 98.8259 69.0167 98.8259 57.2902C98.8259 50.6736 96.5744 45.2213 92.7385 40.9561C93.4624 38.9906 95.1958 32.8733 92.0305 24.8557L91.9431 24.6343L91.7162 24.5626L91.5655 25.0393C91.7162 24.5626 91.7157 24.5624 91.7151 24.5623L91.714 24.5619L91.7114 24.5611L91.7048 24.5591L91.6858 24.5536C91.6707 24.5494 91.6505 24.544 91.6253 24.5377C91.5748 24.5253 91.504 24.5096 91.4126 24.4934C91.2299 24.461 90.9652 24.4265 90.6161 24.4114C89.9177 24.3813 88.8842 24.4292 87.4967 24.7255C84.753 25.3114 80.6292 26.8673 74.9701 30.7064C70.2167 29.4317 65.0857 28.7455 60.0496 28.7455L60.0491 28.7455C55.0113 28.7512 49.9959 29.4105 45.1285 30.7067C39.4697 26.8674 35.3461 25.3114 32.6025 24.7255C31.215 24.4292 30.1816 24.3813 29.4832 24.4114C29.1341 24.4265 28.8694 24.461 28.6867 24.4934C28.5953 24.5096 28.5245 24.5253 28.474 24.5377C28.4488 24.544 28.4286 24.5494 28.4135 24.5536L28.3945 24.5591L28.3879 24.5611L28.3853 24.5619L28.3841 24.5623C28.3836 24.5624 28.3831 24.5626 28.5338 25.0393L28.3831 24.5626L28.1562 24.6343L28.0688 24.8557C24.9013 32.8788 26.6382 38.9989 27.3611 40.9602C23.6232 45.2195 21.2734 50.6684 21.2734 57.2902C21.2734 69.0164 24.8155 76.2838 30.1242 80.7836C35.1385 85.0338 41.6579 86.752 48.0284 87.5188C46.5852 89.1393 45.3455 91.6104 44.8768 94.9088C43.1454 95.6734 40.336 96.5804 37.3405 96.305C34.2322 96.0192 30.874 94.4577 28.2729 89.9959C28.272 89.9943 28.2711 89.9927 28.2702 89.9912L28.2643 89.9805C28.2571 89.9677 28.2467 89.9495 28.2332 89.9262C28.2062 89.8798 28.1666 89.8132 28.1146 89.7292C28.0107 89.5613 27.8567 89.3237 27.6531 89.0385C27.2466 88.4688 26.6398 87.7056 25.8365 86.9288C24.2331 85.3784 21.8158 83.7451 18.6241 83.5342L18.6076 83.5331H18.5911V84.0331C18.5911 83.5331 18.591 83.5331 18.5908 83.5331H18.5902L18.5888 83.5331L18.5844 83.5331L18.5693 83.5332C18.5617 83.5333 18.5521 83.5334 18.5408 83.5336C18.5333 83.5338 18.5249 83.5339 18.5157 83.5341C18.4701 83.5351 18.4054 83.5371 18.3256 83.5409C18.1666 83.5486 17.9459 83.564 17.6982 83.5948C17.2225 83.6542 16.5725 83.7789 16.0872 84.066C15.839 84.2129 15.5893 84.4282 15.4559 84.7427C15.3163 85.0721 15.337 85.4318 15.4876 85.7902C15.7682 86.4582 16.5405 87.223 17.9123 88.1529L17.9477 88.1769L17.9851 88.1938L17.9857 88.1941L17.9861 88.1943L17.9865 88.1945L17.9894 88.1958C17.9941 88.1981 18.0025 88.2021 18.0144 88.2081C18.0383 88.2201 18.0763 88.2397 18.1273 88.2678C18.2292 88.3241 18.3827 88.4144 18.5776 88.5453C18.9674 88.807 19.5233 89.2311 20.1641 89.8704C21.443 91.1463 23.0677 93.2869 24.3841 96.7206L24.3933 96.7476C24.4017 96.7718 24.414 96.806 24.4303 96.8492C24.4629 96.9358 24.5119 97.0589 24.5798 97.2122C24.7154 97.5189 24.9267 97.9474 25.2332 98.4474C25.8461 99.4472 26.8422 100.737 28.3792 101.908Z" stroke="#D2122E"/>
</g>
<defs>
<clipPath id="clip0_1_4">
<rect width="120" height="117.551" fill="white"/>
</clipPath>
</defs>
</svg>
