<svg width="80" height="80" viewBox="0 0 80 80" fill="none" xmlns="http://www.w3.org/2000/svg">
<g clip-path="url(#clip0_1_2)">
<path d="M0.5 40C0.5 18.1846 18.1846 0.5 40 0.5C61.8154 0.5 79.5 18.1846 79.5 40C79.5 61.8154 61.8154 79.5 40 79.5C18.1846 79.5 0.5 61.8154 0.5 40Z" stroke="#D2122E"/>
<path d="M16.2101 38.2708L16.2092 38.2712L16.1981 38.2752C16.1874 38.279 16.1706 38.2853 16.1484 38.2939C16.104 38.3112 16.0389 38.3378 15.9604 38.3733C15.8018 38.4452 15.5969 38.5502 15.4003 38.6848C14.9692 38.9801 14.7586 39.2867 14.7957 39.5841L16.2101 38.2708ZM16.2101 38.2708L16.2104 38.2707L16.2106 38.2707L16.2109 38.2706L16.211 38.2705L16.2206 38.2673L16.2309 38.2632L56.3484 22.5257L56.3577 22.522L56.3664 22.5182L56.3665 22.5182L56.3667 22.5181L56.3669 22.518L56.3671 22.5179L56.3718 22.5159L56.3945 22.5064C56.4153 22.4977 56.447 22.4848 56.4881 22.4689C56.5705 22.437 56.6895 22.3934 56.8326 22.3478C57.1232 22.2554 57.4942 22.1613 57.8523 22.1342C58.2227 22.1062 58.5021 22.1558 58.6751 22.2685C58.8059 22.3537 58.9531 22.5247 58.9628 22.9631L51.8392 58.8792C51.8346 58.8889 51.8291 58.9004 51.8226 58.9136C51.7965 58.9662 51.7552 59.0435 51.6976 59.1344C51.5811 59.3182 51.405 59.5461 51.1635 59.7393C50.9249 59.9302 50.6249 60.0858 50.2491 60.1371C49.8848 60.1869 49.4173 60.1432 48.8266 59.8947L32.3894 47.2928L32.3488 47.2617L32.3028 47.2394L26.3078 44.3419L26.2795 44.3283L26.2497 44.3183L16.164 40.9228L16.1582 40.9207C16.1504 40.9177 16.1374 40.9127 16.12 40.9056C16.0852 40.8914 16.033 40.8691 15.9689 40.8386C15.8396 40.7771 15.6677 40.6848 15.494 40.5619C15.1313 40.3053 14.8448 39.9764 14.7957 39.5842L16.2101 38.2708Z" stroke="#D2122E"/>
<mask id="path-3-inside-1_1_2" fill="white">
<path d="M30.8181 58.6261C30.8181 58.6261 30.3368 58.5811 29.7371 56.6824C29.1377 54.7839 26.0902 44.792 26.0902 44.792L50.3206 29.4045C50.3206 29.4045 51.7196 28.5552 51.6696 29.4045C51.6696 29.4045 51.9193 29.5542 51.1699 30.2536C50.4206 30.9533 32.1352 47.3899 32.1352 47.3899"/>
</mask>
<path d="M29.7371 56.6824L28.7835 56.9834L28.7835 56.9835L29.7371 56.6824ZM26.0902 44.792L25.5542 43.9479L24.9117 44.3559L25.1337 45.0838L26.0902 44.792ZM50.3206 29.4045L49.8016 28.5497L49.793 28.555L49.7845 28.5604L50.3206 29.4045ZM51.6696 29.4045L50.6713 29.3458L50.6357 29.9507L51.1554 30.2622L51.6696 29.4045ZM51.1699 30.2536L50.4876 29.5225L50.4875 29.5227L51.1699 30.2536ZM30.8181 58.6261C30.9112 57.6304 30.913 57.6306 30.9148 57.6308C30.9155 57.6309 30.9173 57.631 30.9185 57.6312C30.921 57.6314 30.9234 57.6317 30.9258 57.6319C30.9307 57.6325 30.9356 57.633 30.9404 57.6336C30.95 57.6348 30.9595 57.6361 30.9689 57.6376C30.9877 57.6405 31.006 57.6439 31.0237 57.6477C31.0592 57.6554 31.092 57.6647 31.122 57.675C31.1825 57.6959 31.2289 57.7199 31.2616 57.7402C31.326 57.7802 31.3306 57.8017 31.2889 57.7485C31.1981 57.633 30.9727 57.2741 30.6907 56.3812L28.7835 56.9835C29.1012 57.9893 29.4163 58.6024 29.7161 58.984C29.8696 59.1794 30.032 59.3308 30.2054 59.4386C30.2925 59.4928 30.3812 59.5352 30.4704 59.5659C30.5147 59.5812 30.5585 59.5933 30.6013 59.6026C30.6227 59.6072 30.6437 59.6111 30.6644 59.6143C30.6747 59.6158 30.6849 59.6173 30.695 59.6185C30.7001 59.6191 30.7051 59.6197 30.7101 59.6203C30.7126 59.6205 30.7151 59.6208 30.7175 59.621C30.7188 59.6212 30.7206 59.6213 30.7213 59.6214C30.7231 59.6216 30.725 59.6218 30.8181 58.6261ZM30.6907 56.3813C30.3927 55.4375 29.4827 52.4706 28.6452 49.7327C28.2268 48.3653 27.8272 47.0572 27.5322 46.0909C27.3847 45.6078 27.2633 45.2101 27.1788 44.9332C27.1366 44.7948 27.1036 44.6866 27.0811 44.6129C27.0699 44.5761 27.0613 44.548 27.0555 44.529C27.0526 44.5195 27.0504 44.5124 27.0489 44.5075C27.0482 44.5051 27.0477 44.5033 27.0473 44.5021C27.0471 44.5015 27.047 44.5011 27.0469 44.5008C27.0468 44.5006 27.0468 44.5005 27.0468 44.5004C27.0468 44.5003 27.0467 44.5003 26.0902 44.792C25.1337 45.0838 25.1338 45.0838 25.1338 45.0839C25.1338 45.084 25.1338 45.0841 25.1339 45.0842C25.134 45.0845 25.1341 45.085 25.1343 45.0856C25.1347 45.0868 25.1352 45.0886 25.136 45.091C25.1374 45.0958 25.1396 45.103 25.1425 45.1125C25.1483 45.1315 25.1569 45.1597 25.1681 45.1965C25.1906 45.2702 25.2236 45.3785 25.2659 45.5169C25.3504 45.7939 25.4718 46.1917 25.6194 46.675C25.9145 47.6415 26.3142 48.95 26.7327 50.3178C27.5687 53.0505 28.4821 56.0288 28.7835 56.9834L30.6907 56.3813ZM26.6263 45.6362L50.8566 30.2487L49.7845 28.5604L25.5542 43.9479L26.6263 45.6362ZM50.3206 29.4045C50.8395 30.2593 50.8393 30.2594 50.8392 30.2595C50.8391 30.2596 50.8389 30.2597 50.8389 30.2597C50.8387 30.2599 50.8385 30.26 50.8383 30.2601C50.838 30.2603 50.8378 30.2604 50.8376 30.2605C50.8373 30.2607 50.8373 30.2607 50.8376 30.2605C50.8382 30.2602 50.84 30.2591 50.8428 30.2574C50.8486 30.254 50.8588 30.2481 50.8726 30.2403C50.9005 30.2245 50.942 30.2018 50.992 30.1763C51.0988 30.1219 51.2149 30.0705 51.3091 30.0414C51.3555 30.0271 51.3741 30.0253 51.3685 30.0259C51.3642 30.0263 51.3457 30.0281 51.3158 30.0262C51.2862 30.0243 51.2365 30.0183 51.1745 29.9984C51.111 29.9781 51.0332 29.9426 50.9547 29.8823C50.8746 29.8208 50.8083 29.7445 50.7596 29.6601C50.6645 29.4951 50.6704 29.3615 50.6713 29.3458L52.6679 29.4633C52.6813 29.2353 52.6544 28.9424 52.4924 28.6613C52.3179 28.3585 52.05 28.1789 51.7853 28.094C51.3461 27.9531 50.9153 28.0698 50.7185 28.1306C50.4692 28.2077 50.2387 28.3156 50.0848 28.3939C50.0044 28.4348 49.937 28.4718 49.8885 28.4991C49.8642 28.5129 49.8443 28.5244 49.8297 28.533C49.8223 28.5373 49.8162 28.5409 49.8115 28.5437C49.8092 28.5452 49.8072 28.5464 49.8055 28.5474C49.8047 28.5479 49.8039 28.5483 49.8033 28.5487C49.803 28.5489 49.8027 28.5491 49.8024 28.5493C49.8022 28.5493 49.802 28.5495 49.802 28.5495C49.8018 28.5496 49.8016 28.5497 50.3206 29.4045ZM51.6696 29.4045C51.1554 30.2622 51.154 30.2614 51.1526 30.2605C51.1521 30.2602 51.1507 30.2594 51.1498 30.2588C51.1479 30.2576 51.146 30.2565 51.1441 30.2553C51.1402 30.2529 51.1364 30.2505 51.1326 30.2481C51.1249 30.2432 51.1172 30.2382 51.1094 30.2329C51.0939 30.2224 51.0781 30.211 51.0622 30.1988C51.0304 30.1743 50.9978 30.146 50.9656 30.1132C50.9004 30.0469 50.8386 29.9638 50.7914 29.8633C50.6897 29.6461 50.7003 29.4457 50.7307 29.324C50.7569 29.2194 50.7931 29.1861 50.7562 29.2366C50.7226 29.2827 50.6448 29.3758 50.4876 29.5225L51.8522 30.9847C52.2525 30.6111 52.5653 30.2313 52.6709 29.8096C52.7326 29.5631 52.7276 29.2816 52.6024 29.0145C52.5436 28.889 52.4681 28.7887 52.3922 28.7115C52.3546 28.6733 52.3173 28.641 52.2823 28.614C52.2647 28.6005 52.2476 28.5882 52.2312 28.5771C52.223 28.5715 52.2149 28.5662 52.207 28.5612C52.203 28.5587 52.1991 28.5562 52.1953 28.5538C52.1933 28.5526 52.1914 28.5515 52.1895 28.5503C52.1885 28.5497 52.1871 28.5489 52.1866 28.5486C52.1852 28.5477 52.1838 28.5469 51.6696 29.4045ZM50.4875 29.5227C50.1218 29.8641 45.3755 34.1371 40.7028 38.3407C38.3704 40.4389 36.0613 42.5153 34.3354 44.0671C33.4725 44.843 32.7553 45.4878 32.2538 45.9386C32.0031 46.164 31.8063 46.3409 31.6722 46.4614C31.6052 46.5217 31.5538 46.5679 31.5192 46.599C31.5019 46.6145 31.4888 46.6263 31.48 46.6342C31.4756 46.6382 31.4723 46.6412 31.4701 46.6432C31.469 46.6442 31.4681 46.6449 31.4676 46.6454C31.4673 46.6457 31.4671 46.6458 31.4669 46.646C31.4668 46.6461 31.4667 46.6462 32.1352 47.3899C32.8038 48.1336 32.8038 48.1335 32.804 48.1334C32.8041 48.1332 32.8043 48.1331 32.8046 48.1328C32.8051 48.1323 32.806 48.1316 32.8071 48.1306C32.8093 48.1286 32.8126 48.1256 32.817 48.1216C32.8258 48.1137 32.8389 48.1019 32.8562 48.0864C32.8909 48.0553 32.9422 48.0091 33.0093 47.9488C33.1434 47.8282 33.3402 47.6513 33.591 47.4259C34.0924 46.9751 34.8096 46.3303 35.6726 45.5543C37.3986 44.0024 39.7078 41.9259 42.0404 39.8276C46.6976 35.6379 51.4687 31.3428 51.8524 30.9845L50.4875 29.5227Z" fill="#D2122E" mask="url(#path-3-inside-1_1_2)"/>
<mask id="path-5-inside-2_1_2" fill="white">
<path d="M38.4067 52.5361L31.8855 58.4817C31.8855 58.4817 31.3758 58.8686 30.818 58.6261L32.0667 47.582"/>
</mask>
<path d="M31.8855 58.4817L32.4901 59.2782L32.5259 59.251L32.5592 59.2207L31.8855 58.4817ZM30.818 58.6261L29.8243 58.5137L29.7412 59.2484L30.4193 59.5431L30.818 58.6261ZM37.733 51.7971L31.2117 57.7427L32.5592 59.2207L39.0805 53.275L37.733 51.7971ZM31.8855 58.4817C31.2809 57.6852 31.2812 57.6849 31.2815 57.6847C31.2816 57.6846 31.2819 57.6844 31.2821 57.6842C31.2826 57.6839 31.283 57.6836 31.2834 57.6833C31.2842 57.6827 31.285 57.6821 31.2857 57.6815C31.2873 57.6803 31.2887 57.6793 31.29 57.6783C31.2927 57.6763 31.295 57.6747 31.2969 57.6733C31.3007 57.6705 31.3032 57.6688 31.3044 57.668C31.3067 57.6665 31.3046 57.668 31.2987 57.6714C31.2855 57.679 31.2647 57.6894 31.2417 57.6971C31.1922 57.7138 31.1961 57.7001 31.2167 57.709L30.4193 59.5431C30.9976 59.7946 31.5353 59.7086 31.8801 59.5925C32.0542 59.5339 32.1957 59.4627 32.2955 59.4053C32.3462 59.3762 32.3882 59.3494 32.4205 59.3277C32.4367 59.3167 32.4507 59.307 32.4623 59.2987C32.4681 59.2945 32.4733 59.2907 32.478 59.2873C32.4803 59.2856 32.4824 59.284 32.4845 59.2824C32.4855 59.2817 32.4864 59.281 32.4874 59.2803C32.4878 59.2799 32.4883 59.2796 32.4887 59.2792C32.489 59.279 32.4893 59.2788 32.4894 59.2787C32.4897 59.2785 32.4901 59.2782 31.8855 58.4817ZM31.8116 58.7384L33.0604 47.6944L31.073 47.4696L29.8243 58.5137L31.8116 58.7384Z" fill="#D2122E" mask="url(#path-5-inside-2_1_2)"/>
</g>
<defs>
<clipPath id="clip0_1_2">
<rect width="80" height="80" fill="white"/>
</clipPath>
</defs>
</svg>
