<svg width="120" height="120" viewBox="0 0 120 120" fill="none" xmlns="http://www.w3.org/2000/svg">
<path d="M112 60C112 88.7188 88.7188 112 60 112C31.2812 112 8 88.7188 8 60C8 31.2812 31.2812 8 60 8C88.7188 8 112 31.2812 112 60Z" stroke="#D2122E"/>
<path d="M27.9822 61.4657L27.9822 61.4657L39.0133 64.9787C40.9694 65.6016 43.0883 65.2806 44.8013 64.0972L27.9822 61.4657ZM27.9822 61.4657C26.4319 60.9721 26.3074 58.6645 27.8191 58.0008L81.3105 34.5153C83.5877 33.5155 86.1205 35.524 85.7056 38.2065C85.7056 38.2065 85.7056 38.2065 85.7056 38.2066L78.7876 82.8964C78.4172 85.2906 75.9033 86.4742 73.9869 85.2725M27.9822 61.4657L73.7212 85.6961L73.9869 85.2725M73.9869 85.2725L53.9431 72.7033L53.9431 72.7033C52.1299 71.5664 51.8188 68.9081 53.3393 67.3404L71.2417 48.883C71.2417 48.8829 71.2417 48.8829 71.2418 48.8829C71.7638 48.3449 71.68 47.6305 71.3379 47.1843C71.1668 46.961 70.9164 46.7807 70.6138 46.7149C70.3008 46.6468 69.9685 46.7099 69.672 46.9148C69.672 46.9148 69.672 46.9148 69.672 46.9148L44.8013 64.0972L73.9869 85.2725Z" stroke="#D2122E"/>
</svg>
