<svg width="98" height="96" viewBox="0 0 98 96" fill="none" xmlns="http://www.w3.org/2000/svg">
<path d="M23.0317 82.9825C25.4973 84.8612 29.5825 86.3117 36.1416 85.0311C36.145 86.8562 36.163 88.6211 36.181 90.0879C36.1872 90.5929 36.1934 91.0619 36.199 91.4855C36.2115 92.4328 36.221 93.1536 36.221 93.545C36.221 94.0955 36.0317 94.661 35.6326 95.0322C35.2551 95.3834 34.6109 95.6333 33.5339 95.4228C14.3367 88.9627 0.5 70.7421 0.5 49.217C0.5 22.2727 22.1186 0.5 48.854 0.5C75.5092 0.5 97.2062 22.2731 97.127 49.2155V49.217C97.127 70.742 83.2904 88.9616 64.0932 95.4238C63.0168 95.6338 62.3726 95.3837 61.9948 95.0323C61.5955 94.6608 61.406 94.095 61.406 93.544C61.406 93.0057 61.4148 92.0649 61.4265 90.8049C61.4325 90.1651 61.4392 89.4429 61.446 88.6494C61.466 86.2958 61.486 83.32 61.486 80.018C61.486 75.9038 60.3069 73.0401 58.7501 71.2654C63.9171 70.5967 69.1866 69.189 73.2493 65.7635C77.6051 62.0909 80.494 56.1693 80.494 46.609C80.494 41.2245 78.6684 36.7806 75.5551 33.2997C76.1595 31.6328 77.5177 26.6683 74.9591 20.1874L74.8717 19.966L74.6447 19.8943L74.494 20.371C74.6447 19.8943 74.6442 19.8941 74.6437 19.8939L74.6426 19.8936L74.6401 19.8928L74.634 19.891L74.6172 19.8861C74.6039 19.8824 74.5865 19.8777 74.565 19.8724C74.5219 19.8618 74.4623 19.8486 74.386 19.8351C74.2332 19.808 74.0138 19.7794 73.7257 19.767C73.1492 19.7422 72.3005 19.7819 71.1643 20.0245C68.9236 20.503 65.5691 21.7694 60.9756 24.8804C57.1122 23.8483 52.9447 23.293 48.854 23.293H48.8534C44.761 23.2976 40.6868 23.8313 36.7319 24.8808C32.1386 21.7695 28.7842 20.503 26.5435 20.0245C25.4074 19.7819 24.5588 19.7422 23.9823 19.767C23.6942 19.7794 23.4748 19.808 23.322 19.8351C23.2457 19.8486 23.1861 19.8618 23.143 19.8724C23.1215 19.8777 23.1041 19.8824 23.0908 19.8861L23.074 19.891L23.0679 19.8928L23.0654 19.8936L23.0643 19.8939C23.0638 19.8941 23.0633 19.8943 23.214 20.371L23.0633 19.8943L22.8363 19.966L22.7489 20.1874C20.1882 26.6735 21.5498 31.6408 22.1534 33.3037C19.1195 36.7788 17.214 41.2194 17.214 46.609C17.214 56.1691 20.1027 62.1106 24.4476 65.7934C28.5015 69.2296 33.7537 70.638 38.8883 71.2731C37.7583 72.5982 36.8014 74.564 36.4251 77.1495C35.0206 77.7637 32.7754 78.4767 30.3873 78.2571C27.8883 78.0273 25.1834 76.7739 23.0826 73.1707C23.0818 73.1693 23.0809 73.1678 23.08 73.1663L23.0759 73.1588C23.0698 73.148 23.0612 73.1328 23.05 73.1136C23.0276 73.0751 22.995 73.0201 22.9522 72.951C22.8666 72.8129 22.7402 72.6179 22.5734 72.384C22.2401 71.917 21.7428 71.2916 21.0843 70.6548C19.7706 69.3845 17.7843 68.0406 15.158 67.8671L15.1415 67.866H15.125V68.366C15.125 67.866 15.1248 67.866 15.1246 67.866H15.1242H15.1229L15.119 67.866L15.1063 67.8661L15.0616 67.8669C15.0238 67.8677 14.9703 67.8693 14.9045 67.8725C14.7734 67.8788 14.5914 67.8915 14.387 67.9169C13.998 67.9655 13.4528 68.0686 13.0404 68.3125C12.8287 68.4378 12.6075 68.6262 12.4885 68.9069C12.3631 69.2025 12.384 69.5218 12.5142 69.8316C12.754 70.4024 13.4035 71.0377 14.5205 71.7949L14.5558 71.8188L14.5927 71.8355L14.5931 71.8357L14.5937 71.836L14.5942 71.8362L14.5947 71.8364L14.5954 71.8368L14.6141 71.846C14.6324 71.8551 14.6623 71.8705 14.7026 71.8928C14.7832 71.9374 14.9058 72.0094 15.0621 72.1143C15.3745 72.3241 15.822 72.6653 16.3389 73.181C17.3698 74.2096 18.6841 75.9395 19.7503 78.7199L19.7574 78.7406C19.7645 78.7611 19.7747 78.7896 19.7883 78.8256C19.8154 78.8975 19.8559 78.9993 19.9119 79.1257C20.0237 79.3785 20.1975 79.7309 20.4492 80.1416C20.9526 80.9629 21.7704 82.0213 23.0317 82.9825Z" stroke="#D2122E"/>
</svg>
